<?xml version="1.0" encoding="UTF-8" standalone="no"?>
<!-- Created with Inkscape (http://www.inkscape.org/) -->

<svg
   xmlns:dc="http://purl.org/dc/elements/1.1/"
   xmlns:cc="http://creativecommons.org/ns#"
   xmlns:rdf="http://www.w3.org/1999/02/22-rdf-syntax-ns#"
   xmlns:svg="http://www.w3.org/2000/svg"
   xmlns="http://www.w3.org/2000/svg"
   xmlns:sodipodi="http://sodipodi.sourceforge.net/DTD/sodipodi-0.dtd"
   xmlns:inkscape="http://www.inkscape.org/namespaces/inkscape"
   width="374.31375mm"
   height="157.0179mm"
   viewBox="0 0 374.31375 157.0179"
   version="1.1"
   id="svg4495"
   inkscape:version="0.92.5 (2060ec1f9f, 2020-04-08)"
   sodipodi:docname="DISNEYCHANNEL-2024.svg">
  <defs
     id="defs4489" />
  <sodipodi:namedview
     id="base"
     pagecolor="#ffffff"
     bordercolor="#666666"
     borderopacity="1.0"
     inkscape:pageopacity="0.0"
     inkscape:pageshadow="2"
     inkscape:zoom="1.0298791"
     inkscape:cx="707.36457"
     inkscape:cy="296.72675"
     inkscape:document-units="mm"
     inkscape:current-layer="layer1"
     showgrid="false"
     inkscape:snap-global="false"
     showguides="true"
     inkscape:guide-bbox="true"
     inkscape:window-width="1920"
     inkscape:window-height="1009"
     inkscape:window-x="-8"
     inkscape:window-y="-8"
     inkscape:window-maximized="1" />
  <metadata
     id="metadata4492">
    <rdf:RDF>
      <cc:Work
         rdf:about="">
        <dc:format>image/svg+xml</dc:format>
        <dc:type
           rdf:resource="http://purl.org/dc/dcmitype/StillImage" />
        <dc:title></dc:title>
      </cc:Work>
    </rdf:RDF>
  </metadata>
  <g
     inkscape:label="Layer 1"
     inkscape:groupmode="layer"
     id="layer1"
     transform="translate(93.273801,-64.638256)">
    <path
       style="fill:#000000;fill-opacity:1;fill-rule:nonzero;stroke:none;stroke-width:0.52122092"
       d="m -59.124722,64.638256 c -20.046432,0 -34.149079,5.86577 -34.149079,13.421487 0,3.479606 2.820328,5.368683 7.857118,5.368683 3.324284,0 5.23838,-0.795319 5.23838,-2.187161 0,-1.193008 -1.41034,-1.988401 -4.835354,-2.584904 -2.014721,-0.298254 -2.719726,-0.596456 -2.719726,-0.89471 0,-1.391841 10.577302,-2.883428 21.154569,-2.883428 51.677479,0 111.212287,35.790427 111.212287,67.603957 0,17.7957 -18.736904,29.12937 -47.849568,29.12937 -5.238262,0 -11.282483,-0.59661 -17.830309,-1.69021 v -34.00063 c 16.2184741,0 34.451574,4.37448 34.451574,8.64942 0,0.99417 -1.107938,2.2866 -3.8278051,3.47961 -1.4103046,0.5965 -2.7197146,1.39162 -2.7197146,2.28638 0,1.0936 1.712272,2.08794 3.4247787,2.08794 7.95813,0 14.002504,-4.87177 14.002504,-10.93624 0,-10.73705 -18.9386228,-18.29276 -45.734363,-18.29276 -0.906618,-18.69045 -2.719562,-25.947841 -6.54752,-25.947829 -3.9287,0 -5.843055,7.854149 -6.648943,27.339929 -20.550106,3.18136 -35.660196,11.4327 -35.660196,19.08783 0,8.35106 18.636245,24.85462 35.459123,31.41617 0.805888,10.04114 2.619102,13.32183 7.958095,13.32183 3.928712,0 5.439558,-1.88913 6.043975,-7.95358 7.756669,1.88891 15.3120663,2.88343 23.2702074,2.88343 32.9406216,0 56.9157296,-17.19913 56.9157296,-40.95987 0,-35.39257 -64.4713376,-77.744714 -118.465763,-77.744714 z m 24.076249,71.879064 v 29.52667 c -14.103023,-4.77204 -31.228303,-16.40394 -31.228303,-21.07655 0,-3.97669 12.592164,-7.25711 31.228303,-8.45012 z"
       id="path1701"
       inkscape:connector-curvature="0" />
    <path
       style="fill:#000000;fill-opacity:1;fill-rule:nonzero;stroke:none;stroke-width:0.5211482"
       d="m 81.030477,75.054016 c -13.796968,0 -29.809413,12.824729 -29.809413,23.561804 0,3.4796 1.712037,7.05878 4.632554,9.94187 -0.503533,1.19301 -0.704864,2.38623 -0.704864,3.3804 0,2.78368 1.812861,5.96486 4.129138,5.96486 1.510612,0 2.819494,-1.49102 4.128692,-4.47353 2.517703,0.99417 5.438255,1.59054 8.358796,1.59054 13.99837,0 31.42103,-13.62007 31.42103,-24.65539 0,-5.169698 -3.625621,-8.749063 -10.070931,-9.842654 -2.215559,-3.479606 -6.646794,-5.4679 -12.085002,-5.4679 z m -7.955875,11.333546 c -4.632554,3.380189 -9.869513,9.046961 -13.595707,14.813158 -0.704947,-0.79534 -1.107762,-1.789405 -1.107762,-2.882991 0,-5.070285 8.459584,-11.930167 14.703469,-11.930167 z m 18.02679,0.795488 c 2.920517,0 4.934522,1.888927 4.934522,4.573193 0,6.760374 -12.286039,13.818807 -23.968156,13.818807 -1.309186,0 -2.517737,-0.099 -3.726217,-0.39731 6.948831,-10.140571 16.818086,-17.99469 22.759851,-17.99469 z"
       id="path1699"
       inkscape:connector-curvature="0" />
    <path
       style="fill:#000000;fill-opacity:1;fill-rule:nonzero;stroke:none;stroke-width:0.51779854"
       d="m 137.32431,162.51455 c 0,7.95338 2.58485,12.92425 6.66096,12.92425 3.18136,0 4.87146,-2.88311 4.87146,-9.84231 0,-6.8598 0.39767,-13.81902 0.79534,-19.08813 0.19883,-2.08777 0.29824,-2.98253 0.69592,-2.98253 0.49708,0 1.59067,1.78952 5.96504,10.53824 5.56737,11.23416 10.83648,17.99453 14.61434,17.99453 6.95921,0 11.93008,-8.35105 11.93008,-19.88345 0,-15.90677 -9.34522,-37.67916 -16.30444,-37.67916 -1.6901,0 -2.58485,1.39184 -2.58485,3.08193 0,0.99417 0.29825,3.18136 1.78951,7.75456 3.18136,9.64346 5.56737,22.56772 5.56737,29.12925 0,1.39185 -0.0995,2.08777 -0.39767,2.08777 -0.69592,0 -4.97086,-6.06445 -8.74873,-12.52658 -7.25746,-12.626 -11.23415,-17.59686 -13.91841,-17.59686 -5.1697,0 -10.93592,19.08812 -10.93592,36.08849 z"
       id="path1693"
       inkscape:connector-curvature="0" />
    <path
       style="fill:#000000;fill-opacity:1;fill-rule:nonzero;stroke:none;stroke-width:0.51779854"
       d="m 185.5547,165.07488 c 0,7.65513 5.46796,13.52074 12.82483,13.52074 8.94757,0 24.45667,-8.74871 24.45667,-13.71958 0,-2.08777 -2.48543,-5.1697 -5.1697,-5.1697 -0.89476,0 -3.28077,0.29825 -7.55572,1.193 -4.67262,0.89476 -10.23998,1.78951 -12.52659,1.78951 0.99418,-3.67844 2.28661,-7.25745 3.3802,-10.04114 3.97669,-0.39767 8.84814,-0.5965 16.50327,-0.5965 2.68427,0 3.77785,-1.19301 3.77785,-4.07611 0,-3.57903 -1.49125,-5.07029 -4.87144,-5.07029 -3.87727,0 -8.74873,0.0995 -12.32775,0.29826 l 2.18718,-7.15806 c 17.69628,0 23.95958,-1.29243 23.95958,-4.87144 0,-3.67844 -6.46213,-8.5499 -11.433,-8.5499 -2.58484,0 -6.26328,0.29826 -9.34522,0.69593 l -14.01785,1.88893 c -5.7662,0.79533 -8.25164,1.98834 -8.25164,3.9767 0,2.48542 3.57903,4.47377 9.34523,5.7662 l -3.28077,8.84814 c -3.4796,0 -5.1697,1.29241 -5.1697,4.0761 0,1.6901 0.5965,3.67844 1.29243,4.77204 -2.78369,5.86562 -3.77786,9.14639 -3.77786,12.42717 z"
       id="path1691"
       inkscape:connector-curvature="0" />
    <path
       style="fill:#000000;fill-opacity:1;fill-rule:nonzero;stroke:none;stroke-width:0.52158314"
       d="m 81.62955,137.88032 c 0,6.16387 5.749934,9.14639 22.79795,10.23998 13.21475,0.89477 21.18395,3.67846 21.18395,7.05864 0,4.27493 -12.71036,8.54989 -25.21897,8.54989 -6.153432,0 -11.398988,-2.08776 -11.398988,-4.5732 0,-1.6901 2.320153,-3.08194 5.649064,-3.08194 2.925391,0 4.942907,1.09359 6.153434,1.78951 2.92539,1.59067 5.14467,2.68427 8.57444,2.68427 5.04379,0 10.79372,-2.48544 10.79372,-4.47378 0,-2.68426 -12.30686,-6.3627 -20.578687,-6.3627 -8.776208,0 -15.232253,4.07611 -15.232253,9.54405 0,7.65514 13.012983,15.80736 26.93386,15.80736 13.31562,0 23.40323,-7.35689 23.40323,-18.29279 0,-9.64348 -7.86834,-14.61434 -26.53038,-16.10561 -12.306852,-0.99417 -16.54365,-1.69009 -16.54365,-2.78368 0,-2.08776 14.12262,-3.97669 26.53037,-3.97669 12.40774,0 17.75416,-1.88893 17.75416,-5.26911 0,-4.07611 -8.07008,-6.46213 -20.47782,-6.46213 -19.97342,0 -33.79343,6.16388 -33.79343,15.70793 z"
       id="path1689"
       inkscape:connector-curvature="0" />
    <path
       style="fill:#000000;fill-opacity:1;fill-rule:nonzero;stroke:none;stroke-width:0.51779854"
       d="m 249.02758,121.44321 c -5.56736,0 -18.78974,24.05919 -18.78974,34.29917 0,4.87145 1.09349,9.14659 2.88299,12.52677 -6.26328,14.71376 -9.94143,29.42755 -9.94143,40.26404 0,7.05863 3.67844,13.12296 8.05281,13.12296 1.78951,0 2.9825,-1.09372 3.28072,-2.98265 2.48546,-16.00618 6.36274,-29.92461 10.43887,-41.35761 0.99414,0.19883 2.08753,0.29809 3.37995,0.29809 16.70211,0 32.7082,-16.60245 32.7082,-34.29873 0,-9.24582 -4.37404,-16.70222 -9.74258,-16.70222 -6.95921,0 -19.68465,12.22827 -32.21121,30.7199 -0.29826,-0.69593 -0.39776,-1.68996 -0.39776,-2.68413 0,-4.37437 2.28642,-10.0411 7.05846,-18.0939 4.07609,-6.8598 5.26945,-10.2399 5.26945,-12.22826 0,-1.7895 -0.79573,-2.88343 -1.98873,-2.88343 z m 22.66754,15.60865 c 1.19299,0 1.98826,2.08767 1.98826,5.26903 0,11.63183 -10.24027,21.57351 -22.26976,21.57351 9.2458,-15.5091 17.79605,-26.84254 20.2815,-26.84254 z"
       id="path1687"
       inkscape:connector-curvature="0" />
    <path
       style="fill:#000000;fill-opacity:1;fill-rule:nonzero;stroke:none;stroke-width:0.51779854"
       d="m 64.214657,155.0698 c 0,15.90677 1.590673,20.18172 7.158043,20.18172 4.37437,0 5.865627,-2.68427 5.865627,-10.3394 0,-27.73744 -2.286599,-41.85469 -6.561542,-41.85469 -4.076113,0 -6.462128,12.7254 -6.462128,32.01237 z"
       id="path1685"
       inkscape:connector-curvature="0" />
    <path
       style="fill:#000000;fill-opacity:1;fill-rule:nonzero;stroke:none;stroke-width:0.52021062"
       d="m 110.4087,212.38763 5.53472,-0.001 v -14.55248 c 0,-1.0801 -0.0975,-2.23073 -0.30313,-3.57832 h 0.48341 l 10.65945,18.1323 6.94049,-10e-4 v -23.9475 h -5.53471 l -5e-4,11.86463 c -6e-5,1.17334 0.1635,2.46853 0.50289,3.98232 h -0.54185 l -9.3056,-15.84695 h -8.43517 v 23.949 z"
       id="path5273"
       inkscape:connector-curvature="0" />
    <path
       style="fill:#000000;fill-opacity:1;fill-rule:nonzero;stroke:none;stroke-width:0.52021062"
       d="m 138.16471,212.38763 5.53472,-0.001 v -14.55248 c 0,-1.0801 -0.0975,-2.23073 -0.30314,-3.57832 h 0.48341 l 10.65944,18.1323 6.94051,-10e-4 v -23.9475 h -5.53472 l -5.1e-4,11.86463 c -4e-5,1.17334 0.16352,2.46853 0.50289,3.98232 h -0.54183 l -9.3056,-15.84695 h -8.43517 v 23.949 z"
       id="path5271"
       inkscape:connector-curvature="0" />
    <path
       style="fill:#000000;fill-opacity:1;fill-rule:nonzero;stroke:none;stroke-width:0.52021223"
       d="m 90.616438,188.43929 -9.371065,23.94926 6.114275,-0.001 1.594266,-4.8151 h 9.739576 l 1.59489,4.81571 h 6.98237 l -9.370453,-23.94867 z m 2.961387,5.16915 h 0.491143 l 3.372189,10.18301 h -7.234886 z"
       id="path5269"
       inkscape:connector-curvature="0" />
    <path
       style="fill:#000000;fill-opacity:1;fill-rule:nonzero;stroke:none;stroke-width:0.52019626"
       d="m 62.221205,212.38613 v -10.06118 h 10.426741 v 10.06268 l 5.821363,-0.001 v -23.94717 h -5.821363 v 9.21522 H 62.221205 v -9.21522 h -5.821363 v 23.94867 l 5.821363,-10e-4 z"
       id="path5267"
       inkscape:connector-curvature="0" />
    <path
       style="fill:#000000;fill-opacity:1;fill-rule:nonzero;stroke:none;stroke-width:0.52019626"
       d="m 27.94469,202.74815 c 0,6.29651 4.519094,10.027 12.215645,10.027 7.352562,0 11.741518,-3.40447 12.124544,-9.45841 h -5.884794 c -0.123337,2.76237 -2.499087,4.37014 -6.41609,4.37014 -4.128128,0 -6.21793,-1.78578 -6.21793,-5.27789 v -3.96289 c 0,-3.41877 2.223416,-5.31938 6.289617,-5.31938 3.761662,0 6.135662,1.62657 6.260514,4.33518 h 5.884782 c -0.390519,-6.1719 -4.447512,-9.34955 -11.782811,-9.34955 -7.947525,0 -12.473477,3.73021 -12.473477,10.15346 z"
       id="path5265"
       inkscape:connector-curvature="0" />
    <path
       style="fill:#000000;fill-opacity:1;fill-rule:nonzero;stroke:none;stroke-width:0.52022874"
       d="m 165.85779,212.38796 h 19.23744 v -4.71933 h -13.41557 v -5.50145 h 10.71088 v -3.66846 h -10.71088 v -5.34063 h 13.41557 v -4.7188 h -19.23695 z"
       id="path5263"
       inkscape:connector-curvature="0" />
    <path
       style="fill:#000000;fill-opacity:1;fill-rule:nonzero;stroke:none;stroke-width:0.52021241"
       d="m 188.90757,188.43929 v 23.94867 h 19.7433 v -4.71903 h -13.92243 l 4.8e-4,-19.22964 z"
       id="path5261"
       inkscape:connector-curvature="0" />
  </g>
</svg>
